<svg width="17" height="16" viewBox="0 0 17 16" fill="none" xmlns="http://www.w3.org/2000/svg">
<g clip-path="url(#clip0_163_211)">
<path d="M13.667 2C12.5615 2 11.667 2.89453 11.667 4H10.667V5H13.667V4H12.667C12.667 3.4043 13.0713 3 13.667 3C14.2627 3 14.667 3.4043 14.667 4V7H1.16699V8H1.76074L2.52637 11.7969V11.8125C2.6416 12.3281 3.02441 12.752 3.52637 12.9219L3.16699 14H4.16699L4.49512 13H12.8389L13.167 14H14.167L13.8076 12.9219C14.3311 12.7617 14.7373 12.3418 14.8545 11.8125V11.7969L15.5732 8H16.167V7H15.667V4C15.667 2.89453 14.7725 2 13.667 2ZM2.77637 8H14.5732L13.8701 11.6094C13.8115 11.8262 13.6279 12 13.3701 12H4.01074C3.74316 12 3.56152 11.8223 3.51074 11.5938L2.77637 8Z" fill="#797979"/>
</g>
<defs>
<clipPath id="clip0_163_211">
<rect width="16" height="16" fill="white" transform="translate(0.666992)"/>
</clipPath>
</defs>
</svg>
