<svg width="16" height="16" viewBox="0 0 16 16" fill="none" xmlns="http://www.w3.org/2000/svg">
<path d="M3 3C2.17773 3 1.5 3.67773 1.5 4.5V7.89062C1.19531 8.16602 1 8.56055 1 9V13.5H3.5V12.5H12.5V13.5H15V9C15 8.56055 14.8047 8.16602 14.5 7.89062V4.5C14.5 3.67773 13.8223 3 13 3H3ZM3 4H13C13.2773 4 13.5 4.22266 13.5 4.5V7.5H12.5V7C12.5 6.17773 11.8223 5.5 11 5.5H9C8.61719 5.5 8.26562 5.65039 8 5.89062C7.73438 5.65039 7.38281 5.5 7 5.5H5C4.17773 5.5 3.5 6.17773 3.5 7V7.5H2.5V4.5C2.5 4.22266 2.72266 4 3 4ZM5 6.5H7C7.27734 6.5 7.5 6.72266 7.5 7V7.5H4.5V7C4.5 6.72266 4.72266 6.5 5 6.5ZM9 6.5H11C11.2773 6.5 11.5 6.72266 11.5 7V7.5H8.5V7C8.5 6.72266 8.72266 6.5 9 6.5ZM2.5 8.5H13.5C13.7773 8.5 14 8.72266 14 9V12.5H13.5V11.5H2.5V12.5H2V9C2 8.72266 2.22266 8.5 2.5 8.5Z" fill="#797979"/>
</svg>
