<svg width="46" height="45" viewBox="0 0 46 45" fill="none" xmlns="http://www.w3.org/2000/svg">
<path d="M27.5 37.5C18 36 14.5 17.8333 13.5 5.5L12 3.5L9 7C9.66667 8.5 11 11.6 11 12C11 12.4 11.6667 15.8333 12 17.5L14 21L13.5 26.5L15 33L17 39L21.5 41.5C21.6667 41.5 23.1 40.7 27.5 37.5Z" fill="#C8C8CA"/>
<path d="M27.3311 31.5188L30.4248 36.6001" stroke="#AC9576" stroke-width="3" stroke-linecap="round" stroke-linejoin="round"/>
<path d="M22.5312 34.4438L25.625 39.5251" stroke="#AC9576" stroke-width="3" stroke-linecap="round" stroke-linejoin="round"/>
<path d="M32.1309 28.5938L35.2246 33.675" stroke="#AC9576" stroke-width="3" stroke-linecap="round" stroke-linejoin="round"/>
<path d="M19.0058 10.6313L12.5934 14.5313L9.66836 9.73135C8.59961 7.96885 9.1621 5.64385 10.9246 4.5751C12.6871 3.50635 15.0121 4.06882 16.0809 5.83132L19.0058 10.6313Z" stroke="#292D32" stroke-width="3" stroke-linecap="round" stroke-linejoin="round"/>
<path d="M22.6628 17.175L16.7378 20.7751C13.2878 22.8751 12.2378 27.1126 13.9066 30.4876L17.7503 38.325C18.9878 40.8563 21.9878 41.7375 24.3878 40.2562L36.4441 32.925C38.8628 31.4625 39.4441 28.4063 37.7753 26.1375L32.5816 19.1251C30.3316 16.0876 26.1128 15.075 22.6628 17.175Z" stroke="#292D32" stroke-width="3" stroke-linecap="round" stroke-linejoin="round"/>
<path d="M20.6692 9.55879L11.0605 15.4099L14.9613 21.8157L24.5699 15.9645L20.6692 9.55879Z" stroke="#292D32" stroke-width="3" stroke-linecap="round" stroke-linejoin="round"/>
</svg>
