<svg width="46" height="45" viewBox="0 0 46 45" fill="none" xmlns="http://www.w3.org/2000/svg">
<path d="M38.9996 40C14.4995 35 9.16618 13.8333 8.49951 5.5C5.69951 4.7 3.83291 12.8333 3.99958 16L13.4996 30L24.9996 40L30.9996 41.5C32.4996 41.5 36.1996 41.2 38.9996 40Z" fill="#C8C8CA"/>
<path d="M41.6937 34.3687C41.6937 35.0437 41.5437 35.7375 41.225 36.4125C40.9062 37.0875 40.4938 37.725 39.95 38.325C39.0313 39.3375 38.0187 40.0688 36.875 40.5375C35.75 41.0063 34.5313 41.25 33.2188 41.25C31.3063 41.25 29.2625 40.8 27.1062 39.8813C24.95 38.9625 22.7937 37.725 20.6562 36.1688C18.5 34.5938 16.4562 32.85 14.5062 30.9187C12.575 28.9687 10.8312 26.925 9.275 24.7875C7.7375 22.65 6.5 20.5125 5.6 18.3938C4.7 16.2563 4.25 14.2125 4.25 12.2625C4.25 10.9875 4.475 9.76875 4.925 8.64375C5.375 7.5 6.0875 6.45 7.08125 5.5125C8.28125 4.33125 9.59375 3.75 10.9813 3.75C11.5063 3.75 12.0313 3.8625 12.5 4.0875C12.9875 4.3125 13.4188 4.65 13.7563 5.1375L18.1063 11.2688C18.4438 11.7375 18.6875 12.1688 18.8562 12.5813C19.025 12.975 19.1188 13.3688 19.1188 13.725C19.1188 14.175 18.9875 14.625 18.725 15.0562C18.4813 15.4875 18.125 15.9375 17.675 16.3875L16.25 17.8687C16.0437 18.075 15.95 18.3188 15.95 18.6188C15.95 18.7688 15.9688 18.9 16.0063 19.05C16.0625 19.2 16.1188 19.3125 16.1563 19.425C16.4938 20.0437 17.075 20.85 17.9 21.825C18.7437 22.8 19.6437 23.7938 20.6187 24.7875C21.6312 25.7813 22.6062 26.7 23.6 27.5437C24.575 28.3687 25.3812 28.9312 26.0187 29.2687C26.1125 29.3062 26.225 29.3625 26.3562 29.4187C26.5062 29.475 26.6562 29.4937 26.825 29.4937C27.1437 29.4937 27.3875 29.3813 27.5937 29.175L29.0188 27.7688C29.4875 27.3 29.9375 26.9437 30.3688 26.7188C30.8 26.4562 31.2312 26.325 31.7 26.325C32.0562 26.325 32.4313 26.4 32.8438 26.5688C33.2562 26.7375 33.6875 26.9813 34.1563 27.3L40.3625 31.7062C40.85 32.0437 41.1875 32.4375 41.3937 32.9062C41.5812 33.375 41.6937 33.8437 41.6937 34.3687Z" stroke="#364250" stroke-width="3" stroke-miterlimit="10"/>
<path d="M35.1875 16.875C35.1875 15.75 34.3062 14.025 32.9937 12.6188C31.7937 11.325 30.2 10.3125 28.625 10.3125" stroke="#364250" stroke-width="3" stroke-linecap="round" stroke-linejoin="round"/>
<path d="M41.75 16.875C41.75 9.61875 35.8812 3.75 28.625 3.75" stroke="#AC9576" stroke-width="3" stroke-linecap="round" stroke-linejoin="round"/>
</svg>
