<svg width="46" height="45" viewBox="0 0 46 45" fill="none" xmlns="http://www.w3.org/2000/svg">
<path d="M16 39.9743C10.2381 30.6328 9.19048 14.8999 16 9L13.0317 9.49165H8.14286L6.39682 14.2974L5 28.2777C5.58201 31.1902 7.33968 36.1801 7.61905 37.9276C7.89841 39.6752 12.6243 40.1199 16 39.9743Z" fill="#C8C8CA"/>
<path d="M15.5 22.875H28.625" stroke="#364250" stroke-width="3" stroke-miterlimit="10" stroke-linecap="round" stroke-linejoin="round"/>
<path d="M15.5 30.375H23.7125" stroke="#AC9576" stroke-width="3" stroke-miterlimit="10" stroke-linecap="round" stroke-linejoin="round"/>
<path d="M19.25 11.25H26.75C30.5 11.25 30.5 9.375 30.5 7.5C30.5 3.75 28.625 3.75 26.75 3.75H19.25C17.375 3.75 15.5 3.75 15.5 7.5C15.5 11.25 17.375 11.25 19.25 11.25Z" stroke="#364250" stroke-width="3" stroke-miterlimit="10" stroke-linecap="round" stroke-linejoin="round"/>
<path d="M30.5 7.5376C36.7437 7.8751 39.875 10.1813 39.875 18.7501V30.0001C39.875 37.5001 38 41.2501 28.625 41.2501H17.375C8 41.2501 6.125 37.5001 6.125 30.0001V18.7501C6.125 10.2001 9.25625 7.8751 15.5 7.5376" stroke="#364250" stroke-width="3" stroke-miterlimit="10" stroke-linecap="round" stroke-linejoin="round"/>
</svg>
