<svg width="24" height="25" viewBox="0 0 24 25" fill="none" xmlns="http://www.w3.org/2000/svg">
<path d="M12.5991 3.79297L10.3521 7.54004L8.96484 6.1543L8.4375 6.75342C5.82525 9.71442 4.5 12.4047 4.5 14.75C4.5 18.4715 7.8645 21.5 12 21.5C16.1355 21.5 19.5 18.4715 19.5 14.75C19.5 11.1785 15.6023 6.77455 13.2788 4.4668L12.5991 3.79297ZM12.8936 6.21729C14.8256 8.23179 18 11.966 18 14.75C18 16.5434 16.9652 18.1282 15.3926 19.0757C15.6165 18.5406 15.75 17.9506 15.75 17.3223C15.75 15.5365 14.4865 13.4183 13.4268 11.9565L12.7939 11.082L11.1328 13.5737L10.0781 12.519L9.58301 13.3364C8.69876 14.7959 8.25 16.1365 8.25 17.3223C8.25 17.9506 8.38349 18.5406 8.60742 19.0757C7.0348 18.1282 6 16.5434 6 14.75C6 12.9583 7.04823 10.7575 9.04248 8.35303L10.6479 9.95996L12.8936 6.21729ZM12.8276 13.7363C13.7501 15.1741 14.25 16.4253 14.25 17.3223C14.25 18.799 13.2405 20 12 20C10.7595 20 9.75 18.799 9.75 17.3223C9.75 16.6308 9.96768 15.8392 10.3989 14.9609L11.3672 15.9277L12.8276 13.7363Z" fill="#364250"/>
</svg>
