<svg width="46" height="45" viewBox="0 0 46 45" fill="none" xmlns="http://www.w3.org/2000/svg">
<path d="M7.18418 19C21.0793 21.736 22.7109 32.0467 21.7898 36.86L12.316 38V35L8 32L6 30.4C6 29.26 6.23684 25.384 7.18418 19Z" fill="#C8C8CA"/>
<path d="M38 13.0312V31.9687C37.7 31.9125 37.3813 31.875 37.0625 31.875C34.475 31.875 32.375 33.975 32.375 36.5625C32.375 36.8813 32.4125 37.2 32.4687 37.5H13.5312C13.5875 37.2 13.625 36.8813 13.625 36.5625C13.625 33.975 11.525 31.875 8.9375 31.875C8.61875 31.875 8.3 31.9125 8 31.9687V13.0312C8.3 13.0875 8.61875 13.125 8.9375 13.125C11.525 13.125 13.625 11.025 13.625 8.4375C13.625 8.11875 13.5875 7.8 13.5312 7.5H32.4687C32.4125 7.8 32.375 8.11875 32.375 8.4375C32.375 11.025 34.475 13.125 37.0625 13.125C37.3813 13.125 37.7 13.0875 38 13.0312Z" stroke="#364250" stroke-width="3" stroke-linecap="round" stroke-linejoin="round"/>
<path d="M13.625 8.4375C13.625 11.025 11.525 13.125 8.9375 13.125C8.61875 13.125 8.3 13.0875 8 13.0312C5.8625 12.6 4.25 10.7063 4.25 8.4375C4.25 5.85 6.35 3.75 8.9375 3.75C11.2063 3.75 13.1 5.3625 13.5312 7.5C13.5875 7.8 13.625 8.11875 13.625 8.4375Z" stroke="#364250" stroke-width="3" stroke-linecap="round" stroke-linejoin="round"/>
<path d="M41.75 8.4375C41.75 10.7063 40.1375 12.6 38 13.0312C37.7 13.0875 37.3813 13.125 37.0625 13.125C34.475 13.125 32.375 11.025 32.375 8.4375C32.375 8.11875 32.4125 7.8 32.4687 7.5C32.9 5.3625 34.7937 3.75 37.0625 3.75C39.65 3.75 41.75 5.85 41.75 8.4375Z" stroke="#AC9576" stroke-width="3" stroke-linecap="round" stroke-linejoin="round"/>
<path d="M13.625 36.5625C13.625 36.8813 13.5875 37.2 13.5312 37.5C13.1 39.6375 11.2063 41.25 8.9375 41.25C6.35 41.25 4.25 39.15 4.25 36.5625C4.25 34.2937 5.8625 32.4 8 31.9687C8.3 31.9125 8.61875 31.875 8.9375 31.875C11.525 31.875 13.625 33.975 13.625 36.5625Z" stroke="#AC9576" stroke-width="3" stroke-linecap="round" stroke-linejoin="round"/>
<path d="M41.75 36.5625C41.75 39.15 39.65 41.25 37.0625 41.25C34.7937 41.25 32.9 39.6375 32.4687 37.5C32.4125 37.2 32.375 36.8813 32.375 36.5625C32.375 33.975 34.475 31.875 37.0625 31.875C37.3813 31.875 37.7 31.9125 38 31.9687C40.1375 32.4 41.75 34.2937 41.75 36.5625Z" stroke="#364250" stroke-width="3" stroke-linecap="round" stroke-linejoin="round"/>
</svg>
