<svg width="60" height="60" viewBox="0 0 60 60" fill="none" xmlns="http://www.w3.org/2000/svg">
<path d="M17.8711 11.25L7.91016 23.2031L6.97266 24.3164L7.91016 25.5469L28.5352 51.7969L30 53.6719L31.4648 51.7969L52.0898 25.5469L53.0273 24.3164L52.0898 23.2031L42.1289 11.25H17.8711ZM19.6289 15H26.4844L21.4453 22.5H13.3594L19.6289 15ZM33.5156 15H40.3711L46.6406 22.5H38.5547L33.5156 15ZM30 16.582L33.9844 22.5H26.0156L30 16.582ZM13.1836 26.25H21.0938L25.5469 42.0117L13.1836 26.25ZM24.9609 26.25H34.9805L30 43.7109L24.9609 26.25ZM38.9062 26.25H46.8164L34.4531 41.9531L38.9062 26.25Z" fill="#364250"/>
<path d="M49.5 0L51.2978 5.70218L57 7.5L51.2978 9.29782L49.5 15L47.7022 9.29782L42 7.5L47.7022 5.70218L49.5 0Z" fill="#AC9576"/>
<path d="M6 39.6001L6.95459 44.6455L12 45.6001L6.95459 46.5547L6 51.6001L5.04541 46.5547L0 45.6001L5.04541 44.6455L6 39.6001Z" fill="#AC9576"/>
</svg>
