<svg width="24" height="25" viewBox="0 0 24 25" fill="none" xmlns="http://www.w3.org/2000/svg">
<path d="M8.41406 3.78125C7.79297 4.54883 7.50586 5.20508 7.5 5.84375C7.49414 6.48242 7.77832 6.97754 7.96875 7.29688C8.15918 7.61621 8.24414 7.77734 8.25 7.95312C8.25586 8.12891 8.19727 8.43652 7.73438 9.03125L8.90625 9.96875C9.49219 9.21289 9.77051 8.5332 9.75 7.90625C9.72949 7.2793 9.44238 6.83105 9.25781 6.52344C9.07324 6.21582 8.99707 6.05176 9 5.86719C9.00293 5.68262 9.08203 5.33984 9.58594 4.71875L8.41406 3.78125ZM12.1641 3.78125C11.543 4.54883 11.2559 5.20508 11.25 5.84375C11.2441 6.48242 11.5283 6.97754 11.7188 7.29688C11.9092 7.61621 11.9941 7.77734 12 7.95312C12.0059 8.12891 11.9473 8.43652 11.4844 9.03125L12.6562 9.96875C13.2422 9.21289 13.5205 8.5332 13.5 7.90625C13.4795 7.2793 13.1924 6.83105 13.0078 6.52344C12.8232 6.21582 12.7471 6.05176 12.75 5.86719C12.7529 5.68262 12.832 5.33984 13.3359 4.71875L12.1641 3.78125ZM15.9141 3.78125C15.293 4.54883 15.0059 5.20508 15 5.84375C14.9941 6.48242 15.2783 6.97754 15.4688 7.29688C15.6592 7.61621 15.7441 7.77734 15.75 7.95312C15.7559 8.12891 15.6973 8.43652 15.2344 9.03125L16.4062 9.96875C16.9922 9.21289 17.2705 8.5332 17.25 7.90625C17.2295 7.2793 16.9424 6.83105 16.7578 6.52344C16.5732 6.21582 16.4971 6.05176 16.5 5.86719C16.5029 5.68262 16.582 5.33984 17.0859 4.71875L15.9141 3.78125ZM2.25 11V12.5H3.14062L4.28906 18.1953V18.2188C4.46191 18.9922 5.03613 19.6279 5.78906 19.8828L5.25 21.5H6.75L7.24219 20H16.7578L17.25 21.5H18.75L18.2109 19.8828C18.9961 19.6426 19.6055 19.0127 19.7812 18.2188V18.1953L20.8594 12.5H21.75V11H2.25ZM4.66406 12.5H19.3594L18.3047 17.9141C18.2168 18.2393 17.9414 18.5 17.5547 18.5H6.51562C6.11426 18.5 5.8418 18.2334 5.76562 17.8906L4.66406 12.5Z" fill="#364250"/>
</svg>
