<svg width="24" height="25" viewBox="0 0 24 25" fill="none" xmlns="http://www.w3.org/2000/svg">
<path d="M16.5 2.9165C14.0244 2.9165 12 4.94092 12 7.4165C12 8.16065 12.2871 8.91943 12.6562 9.76025C13.0254 10.6011 13.4912 11.4917 13.9688 12.3149C14.9238 13.9614 15.8906 15.3384 15.8906 15.3384L16.5 16.229L17.1094 15.3384C17.1094 15.3384 18.0762 13.9614 19.0312 12.3149C19.5088 11.4917 19.9746 10.6011 20.3438 9.76025C20.7129 8.91943 21 8.16065 21 7.4165C21 4.94092 18.9756 2.9165 16.5 2.9165ZM8.97656 4.36963L3 6.92432V21.3149L9.02344 18.7134L15.0234 20.9634L21 18.4087V11.8696C20.5225 12.7866 19.9922 13.6655 19.5 14.4478V17.4243L15.75 19.0181V17.7993L14.6484 16.2056C14.5312 16.0356 14.3936 15.8335 14.25 15.6196V19.0884L9.75 17.4009V6.24463L10.5703 6.54932C10.6436 6.04248 10.7754 5.55322 10.9688 5.09619L8.97656 4.36963ZM16.5 4.4165C18.1641 4.4165 19.5 5.75244 19.5 7.4165C19.5 7.70654 19.3184 8.39209 18.9844 9.15088C18.6504 9.90967 18.1787 10.771 17.7188 11.5649C17.1064 12.6196 16.8428 12.9946 16.5 13.5103C16.1572 12.9946 15.8936 12.6196 15.2812 11.5649C14.8213 10.771 14.3496 9.90967 14.0156 9.15088C13.6816 8.39209 13.5 7.70654 13.5 7.4165C13.5 5.75244 14.8359 4.4165 16.5 4.4165ZM8.25 6.2915V17.4243L4.5 19.0181V7.90869L8.25 6.2915ZM16.5 6.2915C15.8789 6.2915 15.375 6.79541 15.375 7.4165C15.375 8.0376 15.8789 8.5415 16.5 8.5415C17.1211 8.5415 17.625 8.0376 17.625 7.4165C17.625 6.79541 17.1211 6.2915 16.5 6.2915Z" fill="#DDBBA0"/>
</svg>
