<svg width="24" height="25" viewBox="0 0 24 25" fill="none" xmlns="http://www.w3.org/2000/svg">
<g clip-path="url(#clip0_199_502)">
<path fill-rule="evenodd" clip-rule="evenodd" d="M18.0002 4.5C18.7959 4.5 19.5589 4.81607 20.1215 5.37868C20.6842 5.94129 21.0002 6.70435 21.0002 7.5V12.5C21.0002 13.2956 20.6842 14.0587 20.1215 14.6213C19.5589 15.1839 18.7959 15.5 18.0002 15.5H6.00023C5.20458 15.5 4.44152 15.1839 3.87891 14.6213C3.3163 14.0587 3.00023 13.2956 3.00023 12.5V7.5C3.00023 6.70435 3.3163 5.94129 3.87891 5.37868C4.44152 4.81607 5.20458 4.5 6.00023 4.5H18.0002ZM18.0002 6.5H6.00023C5.7553 6.50003 5.51889 6.58996 5.33586 6.75272C5.15282 6.91547 5.03589 7.13975 5.00723 7.383L5.00023 7.5V12.5C5.00026 12.7449 5.09019 12.9813 5.25294 13.1644C5.4157 13.3474 5.63998 13.4643 5.88323 13.493L6.00023 13.5V11.5C6.00026 11.2551 6.09019 11.0187 6.25294 10.8356C6.4157 10.6526 6.63998 10.5357 6.88323 10.507L7.00023 10.5H17.0002C17.2452 10.5 17.4816 10.59 17.6646 10.7527C17.8476 10.9155 17.9646 11.1397 17.9932 11.383L18.0002 11.5V13.5C18.2452 13.5 18.4816 13.41 18.6646 13.2473C18.8476 13.0845 18.9646 12.8603 18.9932 12.617L19.0002 12.5V7.5C19.0002 7.25507 18.9103 7.01866 18.7475 6.83563C18.5848 6.65259 18.3605 6.53566 18.1172 6.507L18.0002 6.5ZM16.0002 12.5H8.00023V13.5H16.0002V12.5ZM16.0002 7.5C16.2654 7.5 16.5198 7.60536 16.7073 7.79289C16.8949 7.98043 17.0002 8.23478 17.0002 8.5C17.0002 8.76522 16.8949 9.01957 16.7073 9.20711C16.5198 9.39464 16.2654 9.5 16.0002 9.5C15.735 9.5 15.4807 9.39464 15.2931 9.20711C15.1056 9.01957 15.0002 8.76522 15.0002 8.5C15.0002 8.23478 15.1056 7.98043 15.2931 7.79289C15.4807 7.60536 15.735 7.5 16.0002 7.5ZM10.0002 16.5C10.2654 16.5 10.5198 16.6054 10.7073 16.7929C10.8949 16.9804 11.0002 17.2348 11.0002 17.5V18.672C10.9998 19.4672 10.6836 20.2298 10.1212 20.792L9.70723 21.207C9.51863 21.3892 9.26603 21.49 9.00383 21.4877C8.74163 21.4854 8.49082 21.3802 8.30541 21.1948C8.12 21.0094 8.01483 20.7586 8.01256 20.4964C8.01028 20.2342 8.11107 19.9816 8.29323 19.793L8.70723 19.379C8.89478 19.1915 9.00017 18.9372 9.00023 18.672V17.5C9.00023 17.2348 9.10559 16.9804 9.29312 16.7929C9.48066 16.6054 9.73501 16.5 10.0002 16.5ZM13.0002 17.5C13.0002 17.2348 13.1056 16.9804 13.2931 16.7929C13.4807 16.6054 13.735 16.5 14.0002 16.5C14.2654 16.5 14.5198 16.6054 14.7073 16.7929C14.8949 16.9804 15.0002 17.2348 15.0002 17.5V18.672C15.0003 18.9372 15.1057 19.1915 15.2932 19.379L15.7072 19.793C15.8027 19.8852 15.8789 19.9956 15.9313 20.1176C15.9837 20.2396 16.0113 20.3708 16.0125 20.5036C16.0136 20.6364 15.9883 20.7681 15.9381 20.891C15.8878 21.0138 15.8135 21.1255 15.7196 21.2194C15.6257 21.3133 15.5141 21.3875 15.3912 21.4378C15.2683 21.4881 15.1366 21.5134 15.0038 21.5123C14.871 21.5111 14.7398 21.4835 14.6178 21.4311C14.4958 21.3787 14.3855 21.3025 14.2932 21.207L13.8792 20.793C13.3166 20.2305 13.0004 19.4676 13.0002 18.672V17.5ZM6.00023 16.5C6.26545 16.5 6.5198 16.6054 6.70734 16.7929C6.89487 16.9804 7.00023 17.2348 7.00023 17.5V18.113C7.00012 18.5328 6.86794 18.9418 6.62242 19.2823C6.3769 19.6228 6.03048 19.8774 5.63223 20.01L4.31623 20.449C4.06454 20.5328 3.78986 20.5132 3.55263 20.3945C3.3154 20.2758 3.13504 20.0677 3.05123 19.816C2.96742 19.5643 2.98703 19.2896 3.10574 19.0524C3.22445 18.8152 3.43254 18.6348 3.68423 18.551L5.00023 18.113V17.5C5.00023 17.2348 5.10559 16.9804 5.29312 16.7929C5.48066 16.6054 5.73501 16.5 6.00023 16.5ZM17.0002 17.5C17.0002 17.2348 17.1056 16.9804 17.2931 16.7929C17.4807 16.6054 17.735 16.5 18.0002 16.5C18.2654 16.5 18.5198 16.6054 18.7073 16.7929C18.8949 16.9804 19.0002 17.2348 19.0002 17.5V18.113L20.3162 18.551C20.5679 18.6348 20.776 18.8152 20.8947 19.0524C21.0134 19.2896 21.033 19.5643 20.9492 19.816C20.8654 20.0677 20.6851 20.2758 20.4478 20.3945C20.2106 20.5132 19.9359 20.5328 19.6842 20.449L18.3682 20.009C17.9703 19.8765 17.6241 19.6222 17.3786 19.2821C17.1331 18.9421 17.0008 18.5334 17.0002 18.114V17.5Z" fill="#364250" stroke="#FCFCFC" stroke-width="0.2"/>
</g>
<defs>
<clipPath id="clip0_199_502">
<rect width="24" height="24" fill="white" transform="translate(0 0.5)"/>
</clipPath>
</defs>
</svg>
