<svg width="60" height="60" viewBox="0 0 60 60" fill="none" xmlns="http://www.w3.org/2000/svg">
<path d="M30 31L12.5 44.5L22 52.5H35.5L47 44.5L30 31Z" fill="#AC9576"/>
<path d="M30 5.625C16.56 5.625 5.625 16.56 5.625 30C5.625 43.44 16.56 54.375 30 54.375C43.44 54.375 54.375 43.44 54.375 30C54.375 16.56 43.44 5.625 30 5.625ZM28.125 9.47021V29.0955L12.7515 41.2793C10.6225 38.0348 9.375 34.1618 9.375 30C9.375 19.261 17.6296 10.422 28.125 9.47021ZM31.875 9.47021C42.3704 10.422 50.625 19.261 50.625 30C50.625 34.1636 49.3755 38.0376 47.2449 41.283L31.875 29.0955V9.47021ZM28.125 33.8818V50.5298C23.0147 50.0664 18.4481 47.7273 15.0952 44.2126L28.125 33.8818ZM31.875 33.8818L44.9048 44.2126C41.5519 47.7273 36.9853 50.0664 31.875 50.5298V33.8818Z" fill="#364250"/>
</svg>
