<svg width="24" height="25" viewBox="0 0 24 25" fill="none" xmlns="http://www.w3.org/2000/svg">
<path d="M6.49187 2.9165C6.0993 2.9165 5.71258 3.05713 5.39031 3.31494L5.34344 3.33838L5.32 3.36182L2.97625 5.77588L2.99969 5.79932C2.27605 6.46729 2.0534 7.46631 2.36687 8.33057C2.3698 8.33643 2.36394 8.34815 2.36687 8.354C3.00262 10.1733 4.62859 13.686 7.80437 16.8618C10.9919 20.0493 14.5514 21.6108 16.3122 22.2993H16.3356C17.2468 22.604 18.2341 22.3872 18.9372 21.7837L21.3044 19.4165C21.9255 18.7954 21.9255 17.7173 21.3044 17.0962L18.2575 14.0493L18.2341 14.0024C17.613 13.3813 16.5114 13.3813 15.8903 14.0024L14.3903 15.5024C13.8483 15.2417 12.5563 14.5737 11.32 13.3931C10.0925 12.2212 9.46551 10.8735 9.23406 10.3462L10.7341 8.84619C11.3639 8.21631 11.3757 7.16748 10.7106 6.54932L10.7341 6.52588L10.6637 6.45557L7.66375 3.36182L7.64031 3.33838L7.59344 3.31494C7.27117 3.05713 6.88445 2.9165 6.49187 2.9165ZM6.49187 4.4165C6.54754 4.4165 6.6032 4.44287 6.65594 4.48682L9.65594 7.55713L9.72625 7.62744C9.72039 7.62158 9.77019 7.70068 9.67937 7.7915L7.80437 9.6665L7.45281 9.99463L7.61687 10.4634C7.61687 10.4634 8.4782 12.769 10.2887 14.4946L10.4528 14.6353C12.196 16.2261 14.2497 17.0962 14.2497 17.0962L14.7184 17.3071L16.945 15.0806C17.0739 14.9517 17.0505 14.9517 17.1794 15.0806L20.2497 18.1509C20.3786 18.2798 20.3786 18.2329 20.2497 18.3618L17.9528 20.6587C17.6071 20.9546 17.2409 21.0161 16.8044 20.8696C15.1052 20.2017 11.8034 18.7515 8.85906 15.8071C5.89129 12.8394 4.34148 9.47315 3.77312 7.83838C3.65887 7.53369 3.7409 7.08252 4.0075 6.854L4.05437 6.80713L6.32781 4.48682C6.38055 4.44287 6.43621 4.4165 6.49187 4.4165Z" fill="#DDBBA0"/>
</svg>
