<svg width="91" height="70" viewBox="0 0 91 70" fill="none" xmlns="http://www.w3.org/2000/svg">
<path d="M54.5 5.74999C57.5 3.08332 61.0833 1.58332 65.25 1.24999C69.4167 0.916661 73.4167 1.83333 77.25 3.99998C81.25 5.99999 84.25 9.24999 86.25 13.75C89.4167 20.5833 90.5 27.5 89.5 34.5C88.6667 41.3333 86.3333 47.5 82.5 53C78.8333 58.5 74.0833 62.75 68.25 65.75C62.5833 68.5833 56.4167 69.5833 49.75 68.75L49 65.5C53 64 56.0833 61.5833 58.25 58.25C60.5833 54.9167 61.5833 51.25 61.25 47.25C60.9167 43.0833 58.9167 39 55.25 35C53.0833 32.1667 51.4167 29 50.25 25.5C49.25 21.8333 49.0833 18.25 49.75 14.75C50.4167 11.25 52 8.24999 54.5 5.74999ZM5.75 5.74999C8.75 3.08332 12.3333 1.58332 16.5 1.24999C20.6667 0.916661 24.6667 1.83333 28.5 3.99998C32.5 5.99999 35.5 9.24999 37.5 13.75C40.6667 20.5833 41.75 27.5 40.75 34.5C39.9167 41.3333 37.5833 47.5 33.75 53C30.0833 58.5 25.3333 62.75 19.5 65.75C13.8333 68.5833 7.66667 69.5833 1 68.75L0.25 65.5C4.25 64 7.33333 61.5833 9.5 58.25C11.8333 54.9167 12.8333 51.25 12.5 47.25C12.1667 43.0833 10.1667 39 6.5 35C4.33333 32.1667 2.66667 29 1.5 25.5C0.500001 21.8333 0.333334 18.25 1 14.75C1.66667 11.25 3.25 8.24999 5.75 5.74999Z" fill="#AC9576"/>
</svg>
