<svg width="46" height="45" viewBox="0 0 46 45" fill="none" xmlns="http://www.w3.org/2000/svg">
<path d="M11.5001 38C6.3001 28.4 9.5 6 11.5001 4L4.5 6.5V41.5C5.5 41.5 8.30002 40 11.5001 38Z" fill="#C8C8CA"/>
<path d="M41.75 11.25V15.7875C41.75 18.75 39.875 20.625 36.9125 20.625H30.5V7.51875C30.5 5.4375 32.2063 3.75 34.2875 3.75C36.3313 3.76875 38.2062 4.59375 39.5562 5.94375C40.9062 7.3125 41.75 9.1875 41.75 11.25Z" stroke="#364250" stroke-width="3" stroke-miterlimit="10" stroke-linecap="round" stroke-linejoin="round"/>
<path d="M4.25 13.125V39.375C4.25 40.9313 6.0125 41.8125 7.25 40.875L10.4562 38.475C11.2062 37.9125 12.2563 37.9875 12.9313 38.6625L16.0437 41.7938C16.775 42.525 17.975 42.525 18.7063 41.7938L21.8563 38.6438C22.5125 37.9875 23.5625 37.9125 24.2937 38.475L27.5 40.875C28.7375 41.7938 30.5 40.9125 30.5 39.375V7.5C30.5 5.4375 32.1875 3.75 34.25 3.75H13.625H11.75C6.125 3.75 4.25 7.10625 4.25 11.25V13.125Z" stroke="#364250" stroke-width="3" stroke-miterlimit="10" stroke-linecap="round" stroke-linejoin="round"/>
<path d="M17.375 24.3938H23" stroke="#AC9576" stroke-width="3" stroke-linecap="round" stroke-linejoin="round"/>
<path d="M17.375 16.8938H23" stroke="#364250" stroke-width="3" stroke-linecap="round" stroke-linejoin="round"/>
<path d="M11.7422 24.375H11.759" stroke="#AC9576" stroke-width="3" stroke-linecap="round" stroke-linejoin="round"/>
<path d="M11.7422 16.875H11.759" stroke="#364250" stroke-width="3" stroke-linecap="round" stroke-linejoin="round"/>
</svg>
