<svg width="46" height="45" viewBox="0 0 46 45" fill="none" xmlns="http://www.w3.org/2000/svg">
<path d="M17.5263 38.5195C7.5875 18.3011 17.8772 3.83587 27 4.49338L21.7368 4L16.4737 5.97253L8.05263 8.93133L7 30.1359C8.22807 31.2866 18.7893 41.2812 17.5263 38.5195Z" fill="#C8C8CA"/>
<path d="M20.1686 4.1813L10.8123 7.7063C8.65605 8.51255 6.89355 11.0625 6.89355 13.35V27.2813C6.89355 29.4938 8.35605 32.4 10.1373 33.7313L18.1998 39.7501C20.8436 41.7376 25.1936 41.7376 27.8373 39.7501L35.8998 33.7313C37.6811 32.4 39.1436 29.4938 39.1436 27.2813V13.35C39.1436 11.0438 37.3811 8.4938 35.2248 7.68755L25.8686 4.1813C24.2748 3.60005 21.7248 3.60005 20.1686 4.1813Z" stroke="#292D32" stroke-width="3" stroke-linecap="round" stroke-linejoin="round"/>
<path d="M17.4688 22.2562L20.4875 25.2749L28.55 17.2124" stroke="#AC9576" stroke-width="3" stroke-linecap="round" stroke-linejoin="round"/>
</svg>
