<svg width="24" height="25" viewBox="0 0 24 25" fill="none" xmlns="http://www.w3.org/2000/svg">
<path d="M11.25 3.5V5.07031C9.35742 5.38379 7.88379 6.85742 7.57031 8.75H6.75V10.25H17.25V8.75H16.4297C16.1162 6.85742 14.6426 5.38379 12.75 5.07031V3.5H11.25ZM12 6.5C13.4385 6.5 14.5371 7.4375 14.8594 8.75H9.14062C9.46289 7.4375 10.5615 6.5 12 6.5ZM10.5 11C10.0869 11 9.75 11.3369 9.75 11.75C9.75 12.1631 10.0869 12.5 10.5 12.5C10.9131 12.5 11.25 12.1631 11.25 11.75C11.25 11.3369 10.9131 11 10.5 11ZM13.5 11C13.0869 11 12.75 11.3369 12.75 11.75C12.75 12.1631 13.0869 12.5 13.5 12.5C13.9131 12.5 14.25 12.1631 14.25 11.75C14.25 11.3369 13.9131 11 13.5 11ZM9 13.25C8.58691 13.25 8.25 13.5869 8.25 14C8.25 14.4131 8.58691 14.75 9 14.75C9.41309 14.75 9.75 14.4131 9.75 14C9.75 13.5869 9.41309 13.25 9 13.25ZM12 13.25C11.5869 13.25 11.25 13.5869 11.25 14C11.25 14.4131 11.5869 14.75 12 14.75C12.4131 14.75 12.75 14.4131 12.75 14C12.75 13.5869 12.4131 13.25 12 13.25ZM15 13.25C14.5869 13.25 14.25 13.5869 14.25 14C14.25 14.4131 14.5869 14.75 15 14.75C15.4131 14.75 15.75 14.4131 15.75 14C15.75 13.5869 15.4131 13.25 15 13.25ZM7.5 15.5C7.08691 15.5 6.75 15.8369 6.75 16.25C6.75 16.6631 7.08691 17 7.5 17C7.91309 17 8.25 16.6631 8.25 16.25C8.25 15.8369 7.91309 15.5 7.5 15.5ZM10.5 15.5C10.0869 15.5 9.75 15.8369 9.75 16.25C9.75 16.6631 10.0869 17 10.5 17C10.9131 17 11.25 16.6631 11.25 16.25C11.25 15.8369 10.9131 15.5 10.5 15.5ZM13.5 15.5C13.0869 15.5 12.75 15.8369 12.75 16.25C12.75 16.6631 13.0869 17 13.5 17C13.9131 17 14.25 16.6631 14.25 16.25C14.25 15.8369 13.9131 15.5 13.5 15.5ZM16.5 15.5C16.0869 15.5 15.75 15.8369 15.75 16.25C15.75 16.6631 16.0869 17 16.5 17C16.9131 17 17.25 16.6631 17.25 16.25C17.25 15.8369 16.9131 15.5 16.5 15.5ZM6 17.75C5.58691 17.75 5.25 18.0869 5.25 18.5C5.25 18.9131 5.58691 19.25 6 19.25C6.41309 19.25 6.75 18.9131 6.75 18.5C6.75 18.0869 6.41309 17.75 6 17.75ZM9 17.75C8.58691 17.75 8.25 18.0869 8.25 18.5C8.25 18.9131 8.58691 19.25 9 19.25C9.41309 19.25 9.75 18.9131 9.75 18.5C9.75 18.0869 9.41309 17.75 9 17.75ZM12 17.75C11.5869 17.75 11.25 18.0869 11.25 18.5C11.25 18.9131 11.5869 19.25 12 19.25C12.4131 19.25 12.75 18.9131 12.75 18.5C12.75 18.0869 12.4131 17.75 12 17.75ZM15 17.75C14.5869 17.75 14.25 18.0869 14.25 18.5C14.25 18.9131 14.5869 19.25 15 19.25C15.4131 19.25 15.75 18.9131 15.75 18.5C15.75 18.0869 15.4131 17.75 15 17.75ZM18 17.75C17.5869 17.75 17.25 18.0869 17.25 18.5C17.25 18.9131 17.5869 19.25 18 19.25C18.4131 19.25 18.75 18.9131 18.75 18.5C18.75 18.0869 18.4131 17.75 18 17.75ZM4.5 20C4.08691 20 3.75 20.3369 3.75 20.75C3.75 21.1631 4.08691 21.5 4.5 21.5C4.91309 21.5 5.25 21.1631 5.25 20.75C5.25 20.3369 4.91309 20 4.5 20ZM7.5 20C7.08691 20 6.75 20.3369 6.75 20.75C6.75 21.1631 7.08691 21.5 7.5 21.5C7.91309 21.5 8.25 21.1631 8.25 20.75C8.25 20.3369 7.91309 20 7.5 20ZM10.5 20C10.0869 20 9.75 20.3369 9.75 20.75C9.75 21.1631 10.0869 21.5 10.5 21.5C10.9131 21.5 11.25 21.1631 11.25 20.75C11.25 20.3369 10.9131 20 10.5 20ZM13.5 20C13.0869 20 12.75 20.3369 12.75 20.75C12.75 21.1631 13.0869 21.5 13.5 21.5C13.9131 21.5 14.25 21.1631 14.25 20.75C14.25 20.3369 13.9131 20 13.5 20ZM16.5 20C16.0869 20 15.75 20.3369 15.75 20.75C15.75 21.1631 16.0869 21.5 16.5 21.5C16.9131 21.5 17.25 21.1631 17.25 20.75C17.25 20.3369 16.9131 20 16.5 20ZM19.5 20C19.0869 20 18.75 20.3369 18.75 20.75C18.75 21.1631 19.0869 21.5 19.5 21.5C19.9131 21.5 20.25 21.1631 20.25 20.75C20.25 20.3369 19.9131 20 19.5 20Z" fill="#364250"/>
</svg>
