<!DOCTYPE svg PUBLIC "-//W3C//DTD SVG 1.1//EN" "http://www.w3.org/Graphics/SVG/1.1/DTD/svg11.dtd">
<!-- Uploaded to: SVG Repo, www.svgrepo.com, Transformed by: SVG Repo Mixer Tools -->
<svg fill="#364250" height="800px" width="800px" version="1.1" id="Icons" xmlns="http://www.w3.org/2000/svg" xmlns:xlink="http://www.w3.org/1999/xlink" viewBox="0 0 32 32" xml:space="preserve">
<g id="SVGRepo_bgCarrier" stroke-width="0"/>
<g id="SVGRepo_tracerCarrier" stroke-linecap="round" stroke-linejoin="round"/>
<g id="SVGRepo_iconCarrier"> <g> <path d="M12.3,11H5.7c-1.1,0-2-0.5-2.4-1.3C2.9,9,2.9,8.3,3.3,7.7C4.4,6,6.6,5,9,5s4.6,1,5.7,2.7c0.4,0.6,0.4,1.4,0.1,2 C14.3,10.5,13.4,11,12.3,11z"/> </g> <path d="M12,12H6c-1.7,0-3,1.4-3,3v9c0,1.7,1.3,3,3,3V17c0-0.6,0.4-1,1-1s1,0.4,1,1v10h2V17c0-0.6,0.4-1,1-1s1,0.4,1,1v10 c1.7,0,3-1.4,3-3v-9C15,13.4,13.6,12,12,12z"/> <g> <path d="M26.3,11h-6.7c-1.1,0-2-0.5-2.4-1.3c-0.3-0.6-0.3-1.4,0.1-2C18.4,6,20.6,5,23,5s4.6,1,5.7,2.7c0.4,0.6,0.4,1.4,0.1,2 C28.3,10.5,27.4,11,26.3,11z"/> </g> <path d="M26,12h-6c-1.7,0-3,1.4-3,3v9c0,1.7,1.3,3,3,3V17c0-0.6,0.4-1,1-1s1,0.4,1,1v10h2V17c0-0.6,0.4-1,1-1s1,0.4,1,1v10 c1.7,0,3-1.4,3-3v-9C29,13.4,27.6,12,26,12z"/> </g>
</svg>