<svg width="24" height="25" viewBox="0 0 24 25" fill="none" xmlns="http://www.w3.org/2000/svg">
<path d="M9 3.5C7.76074 3.5 6.75 4.51074 6.75 5.75V15.2188L7.5 14.6797L8.25 15.2188V5.75C8.25 5.33691 8.58691 5 9 5H9.75V3.5H9ZM18 3.5C16.7607 3.5 15.75 4.51074 15.75 5.75V6.5H9V8H15.75V9.5H9V11H15.75V12.5H9V14H15.75V15.2188L16.5 14.6797L17.25 15.2188V5.75C17.25 5.33691 17.5869 5 18 5H18.75V3.5H18ZM7.5 16.0391L7.03125 16.4141C7.03125 16.4141 6.27832 17 5.27344 17C4.26855 17 3.46875 16.4141 3.46875 16.4141L2.53125 17.5859C2.53125 17.5859 3.68848 18.5 5.27344 18.5C6.36914 18.5 7.06641 18.1367 7.5 17.8672C7.93652 18.1338 8.66895 18.5 9.77344 18.5C10.8691 18.5 11.5664 18.1367 12 17.8672C12.4365 18.1338 13.1689 18.5 14.2734 18.5C15.3691 18.5 16.0664 18.1367 16.5 17.8672C16.9365 18.1338 17.6689 18.5 18.7734 18.5C20.3584 18.5 21.4688 17.5859 21.4688 17.5859L20.5312 16.4141C20.5312 16.4141 19.7783 17 18.7734 17C17.7686 17 16.9688 16.4141 16.9688 16.4141L16.5 16.0391L16.0312 16.4141C16.0312 16.4141 15.2783 17 14.2734 17C13.2686 17 12.4688 16.4141 12.4688 16.4141L12 16.0391L11.5312 16.4141C11.5312 16.4141 10.7783 17 9.77344 17C8.76855 17 7.96875 16.4141 7.96875 16.4141L7.5 16.0391ZM7.5 19.0391L7.03125 19.4141C7.03125 19.4141 6.27832 20 5.27344 20C4.26855 20 3.46875 19.4141 3.46875 19.4141L2.53125 20.5859C2.53125 20.5859 3.68848 21.5 5.27344 21.5C6.36914 21.5 7.06641 21.1367 7.5 20.8672C7.93652 21.1338 8.66895 21.5 9.77344 21.5C10.8691 21.5 11.5664 21.1367 12 20.8672C12.4365 21.1338 13.1689 21.5 14.2734 21.5C15.3691 21.5 16.0664 21.1367 16.5 20.8672C16.9365 21.1338 17.6689 21.5 18.7734 21.5C20.3584 21.5 21.4688 20.5859 21.4688 20.5859L20.5312 19.4141C20.5312 19.4141 19.7783 20 18.7734 20C17.7686 20 16.9688 19.4141 16.9688 19.4141L16.5 19.0391L16.0312 19.4141C16.0312 19.4141 15.2783 20 14.2734 20C13.2686 20 12.4688 19.4141 12.4688 19.4141L12 19.0391L11.5312 19.4141C11.5312 19.4141 10.7783 20 9.77344 20C8.76855 20 7.96875 19.4141 7.96875 19.4141L7.5 19.0391Z" fill="#364250"/>
</svg>
