<svg width="46" height="45" viewBox="0 0 46 45" fill="none" xmlns="http://www.w3.org/2000/svg">
<path d="M15.5 36.5C5.5 25 14 4.33333 18 3.5H10L5.5 5.5L4.5 21L5.5 31.5C6.5 32.5 11 36.5 15.5 36.5Z" fill="#C8C8CA"/>
<path d="M34.25 35.3625H32.825C31.325 35.3625 29.9 35.9437 28.85 36.9937L25.6437 40.1625C24.1812 41.6063 21.8 41.6063 20.3375 40.1625L17.1312 36.9937C16.0812 35.9437 14.6375 35.3625 13.1562 35.3625H11.75C8.6375 35.3625 6.125 32.8688 6.125 29.7938V9.31875C6.125 6.24375 8.6375 3.75 11.75 3.75H34.25C37.3625 3.75 39.875 6.24375 39.875 9.31875V29.775C39.875 32.85 37.3625 35.3625 34.25 35.3625Z" stroke="#364250" stroke-width="3" stroke-miterlimit="10" stroke-linecap="round" stroke-linejoin="round"/>
<path d="M23.1315 16.7812C23.0565 16.7812 22.944 16.7812 22.8502 16.7812C20.8815 16.7062 19.3252 15.1125 19.3252 13.125C19.3252 11.1 20.9565 9.46875 22.9815 9.46875C25.0065 9.46875 26.6377 11.1187 26.6377 13.125C26.6565 15.1125 25.1003 16.725 23.1315 16.7812Z" stroke="#AC9576" stroke-width="3" stroke-linecap="round" stroke-linejoin="round"/>
<path d="M17.8439 22.425C15.3502 24.0938 15.3502 26.8125 17.8439 28.4813C20.6752 30.375 25.3252 30.375 28.1564 28.4813C30.6502 26.8125 30.6502 24.0938 28.1564 22.425C25.3252 20.55 20.6939 20.55 17.8439 22.425Z" stroke="#AC9576" stroke-width="3" stroke-linecap="round" stroke-linejoin="round"/>
</svg>
