<svg width="17" height="16" viewBox="0 0 17 16" fill="none" xmlns="http://www.w3.org/2000/svg">
<path d="M6.08301 3C5.12207 3 4.33301 3.78906 4.33301 4.75C4.33301 5.71094 5.12207 6.5 6.08301 6.5C7.04395 6.5 7.83301 5.71094 7.83301 4.75C7.83301 3.78906 7.04395 3 6.08301 3ZM10.583 3C9.62207 3 8.83301 3.78906 8.83301 4.75C8.83301 5.71094 9.62207 6.5 10.583 6.5C11.5439 6.5 12.333 5.71094 12.333 4.75C12.333 3.78906 11.5439 3 10.583 3ZM6.08301 4C6.50293 4 6.83301 4.33008 6.83301 4.75C6.83301 5.16992 6.50293 5.5 6.08301 5.5C5.66309 5.5 5.33301 5.16992 5.33301 4.75C5.33301 4.33008 5.66309 4 6.08301 4ZM10.583 4C11.0029 4 11.333 4.33008 11.333 4.75C11.333 5.16992 11.0029 5.5 10.583 5.5C10.1631 5.5 9.83301 5.16992 9.83301 4.75C9.83301 4.33008 10.1631 4 10.583 4ZM3.83301 6C2.7334 6 1.83301 6.90039 1.83301 8C1.83301 8.55664 2.07129 9.05859 2.44238 9.42188C1.77637 9.87305 1.33301 10.6406 1.33301 11.5H2.33301C2.33301 10.666 2.99902 10 3.83301 10C4.66699 10 5.33301 10.666 5.33301 11.5H6.33301C6.33301 10.6406 5.88965 9.87305 5.22363 9.42188C5.59473 9.05859 5.83301 8.55664 5.83301 8C5.83301 6.90039 4.93262 6 3.83301 6ZM6.33301 11.5C6.02051 11.918 5.83301 12.4434 5.83301 13H6.83301C6.83301 12.166 7.49902 11.5 8.33301 11.5C9.16699 11.5 9.83301 12.166 9.83301 13H10.833C10.833 12.4434 10.6455 11.918 10.333 11.5C10.1631 11.2734 9.95801 11.0801 9.72363 10.9219C10.0947 10.5586 10.333 10.0566 10.333 9.5C10.333 8.40039 9.43262 7.5 8.33301 7.5C7.2334 7.5 6.33301 8.40039 6.33301 9.5C6.33301 10.0566 6.57129 10.5586 6.94238 10.9219C6.70801 11.0801 6.50293 11.2734 6.33301 11.5ZM10.333 11.5H11.333C11.333 10.666 11.999 10 12.833 10C13.667 10 14.333 10.666 14.333 11.5H15.333C15.333 10.6406 14.8896 9.87305 14.2236 9.42188C14.5947 9.05859 14.833 8.55664 14.833 8C14.833 6.90039 13.9326 6 12.833 6C11.7334 6 10.833 6.90039 10.833 8C10.833 8.55664 11.0713 9.05859 11.4424 9.42188C10.7764 9.87305 10.333 10.6406 10.333 11.5ZM3.83301 7C4.3916 7 4.83301 7.44141 4.83301 8C4.83301 8.55859 4.3916 9 3.83301 9C3.27441 9 2.83301 8.55859 2.83301 8C2.83301 7.44141 3.27441 7 3.83301 7ZM12.833 7C13.3916 7 13.833 7.44141 13.833 8C13.833 8.55859 13.3916 9 12.833 9C12.2744 9 11.833 8.55859 11.833 8C11.833 7.44141 12.2744 7 12.833 7ZM8.33301 8.5C8.8916 8.5 9.33301 8.94141 9.33301 9.5C9.33301 10.0586 8.8916 10.5 8.33301 10.5C7.77441 10.5 7.33301 10.0586 7.33301 9.5C7.33301 8.94141 7.77441 8.5 8.33301 8.5Z" fill="#797979"/>
</svg>
