<svg width="60" height="60" viewBox="0 0 60 60" fill="none" xmlns="http://www.w3.org/2000/svg">
<path d="M46.926 57.7825C39.3237 47.3739 42.0068 35.4783 45.1372 33H50.0563L59 36.4696L57.2113 48.8608C53.0375 51.9999 48.0738 59.354 46.926 57.7825Z" fill="#AC9576"/>
<path d="M30 9.375C22.6875 9.375 16.875 15.1875 16.875 22.5C16.875 27.0703 19.1437 31.0529 22.6318 33.3984C15.9563 36.2762 11.25 42.9255 11.25 50.625H15C15 42.375 21.75 35.625 30 35.625C30.6397 35.625 31.2612 35.5646 31.875 35.4785V44.0625C31.875 53.8125 44.6243 59.439 45.1868 59.6265L45.9375 60L46.6882 59.6265C47.2507 59.439 60 53.8125 60 44.0625V33.75H58.3118C54.7493 33.75 52.686 32.439 50.9985 31.5015C49.311 30.7515 47.8125 30 45.9375 30C44.0625 30 42.5625 30.7515 41.25 31.5015C40.3008 32.0288 39.162 32.6668 37.7234 33.1311C41.0028 30.7578 43.125 26.9079 43.125 22.5C43.125 15.1875 37.3125 9.375 30 9.375ZM30 13.125C35.25 13.125 39.375 17.25 39.375 22.5C39.375 27.75 35.25 31.875 30 31.875C24.75 31.875 20.625 27.75 20.625 22.5C20.625 17.25 24.75 13.125 30 13.125ZM45.9375 33.75C46.875 33.75 47.6235 34.1243 49.1235 34.8743L49.6875 35.061C51.1875 35.811 53.25 36.9382 56.25 37.3132V43.8757C56.25 50.0632 48.1875 54.561 45.9375 55.686C43.6875 54.561 35.625 50.0632 35.625 43.8757V37.3132C38.8125 36.9382 40.8743 35.811 42.3743 35.061L42.9382 34.8743H43.125H43.3118C44.4368 33.9368 45 33.75 45.9375 33.75Z" fill="#364250"/>
</svg>
