<!DOCTYPE svg PUBLIC "-//W3C//DTD SVG 1.1//EN" "http://www.w3.org/Graphics/SVG/1.1/DTD/svg11.dtd">
<!-- Uploaded to: SVG Repo, www.svgrepo.com, Transformed by: SVG Repo Mixer Tools -->
<svg fill="#364250" height="800px" width="800px" version="1.1" id="Capa_1" xmlns="http://www.w3.org/2000/svg" xmlns:xlink="http://www.w3.org/1999/xlink" viewBox="0 0 60 60" xml:space="preserve">
<g id="SVGRepo_bgCarrier" stroke-width="0"/>
<g id="SVGRepo_tracerCarrier" stroke-linecap="round" stroke-linejoin="round"/>
<g id="SVGRepo_iconCarrier"> <path d="M48.522,3.185C47.684,1.259,45.823,0,43.687,0H6.313C3.384,0,1,2.384,1,5.313V56h2v4h4.618l2-4h32.764l2,4H49v-4v-2v-0.051 l10,2.307V5.172L48.522,3.185z M47,54h-5.618H10.618H3V5.313C3,3.486,4.486,2,6.313,2h37.374c1.02,0,1.943,0.461,2.553,1.22 c-0.025,0.009-0.047,0.024-0.072,0.034c-0.06,0.024-0.116,0.054-0.174,0.081c-0.129,0.061-0.254,0.127-0.373,0.203 c-0.058,0.036-0.114,0.073-0.169,0.112c-0.124,0.089-0.24,0.186-0.351,0.289c-0.033,0.031-0.069,0.056-0.1,0.088 C44.374,3.394,43.507,3,42.549,3H26h-2H7.451C5.548,3,4,4.548,4,6.451V53h20h2h18.884L47,53.488V54z M26,44V20h3v2 c0,0.553,0.448,1,1,1s1-0.447,1-1v-2h1v2c0,0.553,0.448,1,1,1s1-0.447,1-1v-2h1v2c0,0.553,0.448,1,1,1s1-0.447,1-1v-2h1v2 c0,0.553,0.448,1,1,1s1-0.447,1-1v-2h4v24H26z M44,46v5H26v-5H44z M40,18v-1c0-0.553-0.448-1-1-1s-1,0.447-1,1v1h-1v-1 c0-0.553-0.448-1-1-1s-1,0.447-1,1v1h-1v-1c0-0.553-0.448-1-1-1s-1,0.447-1,1v1h-1v-1c0-0.553-0.448-1-1-1s-1,0.447-1,1v1h-3v-3h18 v3H40z M26,13V5h16.549C43.349,5,44,5.651,44,6.451V13H26z M21,26v5c0,0.553-0.448,1-1,1s-1-0.447-1-1v-5c0-0.553,0.448-1,1-1 S21,25.447,21,26z"/> </g>
</svg>