<svg width="24" height="25" viewBox="0 0 24 25" fill="none" xmlns="http://www.w3.org/2000/svg">
<path d="M12 5.75C8.23828 5.75 4.84277 7.31152 2.39062 9.80469L3.44531 10.8594C5.625 8.63867 8.65137 7.25 12 7.25C15.3486 7.25 18.375 8.63867 20.5547 10.8594L21.6094 9.80469C19.1572 7.31152 15.7617 5.75 12 5.75ZM12 9.5C9.26953 9.5 6.81152 10.6396 5.03906 12.4531L6.09375 13.5078C7.59375 11.9668 9.68555 11 12 11C14.3145 11 16.4062 11.9668 17.9062 13.5078L18.9609 12.4531C17.1885 10.6396 14.7305 9.5 12 9.5ZM12 13.25C10.3037 13.25 8.78027 13.9678 7.6875 15.1016L8.74219 16.1562C9.5625 15.2949 10.7168 14.75 12 14.75C13.2832 14.75 14.4375 15.2949 15.2578 16.1562L16.3125 15.1016C15.2227 13.9678 13.6963 13.25 12 13.25ZM12 17C11.3379 17 10.749 17.293 10.3359 17.75L12 19.4141L13.6641 17.75C13.251 17.293 12.6621 17 12 17Z" fill="#364250"/>
</svg>
